<svg xmlns="http://www.w3.org/2000/svg" xmlns:xlink="http://www.w3.org/1999/xlink" width="56" zoomAndPan="magnify" viewBox="0 0 42 30.000001" height="40" preserveAspectRatio="xMidYMid meet" version="1.0"><defs><clipPath id="e1c8a03035"><path d="M 6.59375 0.109375 L 35.625 0.109375 L 35.625 29 L 6.59375 29 Z M 6.59375 0.109375 " clip-rule="nonzero"/></clipPath></defs><g clip-path="url(#e1c8a03035)"><path fill="#ffffff" d="M 20.996094 0.109375 C 28.953125 0.109375 35.398438 6.5625 35.398438 14.511719 C 35.398438 21.714844 28.945312 28.914062 20.996094 28.914062 C 13.042969 28.914062 6.59375 22.46875 6.59375 14.511719 C 6.59375 6.554688 13.042969 0.109375 20.996094 0.109375 Z M 20.996094 0.109375 " fill-opacity="1" fill-rule="nonzero"/></g><path fill="#000000" d="M 25.207031 14.15625 C 26.175781 13.617188 26.875 12.550781 26.875 11.351562 C 26.875 9.382812 25.09375 7.96875 22.832031 7.96875 L 22.566406 7.96875 L 22.566406 5.4375 L 20.871094 5.4375 L 20.871094 7.96875 L 20.058594 7.96875 L 20.058594 5.4375 L 18.359375 5.4375 L 18.359375 7.96875 L 14.394531 7.96875 L 14.394531 10.644531 L 15.917969 10.644531 L 15.917969 18.476562 L 14.394531 18.476562 L 14.394531 21.144531 L 18.367188 21.144531 L 18.367188 23.59375 L 20.0625 23.59375 L 20.0625 21.144531 L 20.875 21.144531 L 20.875 23.59375 L 22.574219 23.59375 L 22.574219 21.144531 L 23.324219 21.144531 C 25.785156 21.144531 27.613281 19.65625 27.613281 17.570312 C 27.601562 16.011719 26.609375 14.636719 25.207031 14.15625 Z M 21.46875 10.644531 L 21.980469 10.644531 C 22.769531 10.644531 23.386719 11.160156 23.386719 11.886719 C 23.386719 12.59375 22.75 13.132812 21.980469 13.132812 L 19.214844 13.132812 L 19.214844 10.648438 L 21.46875 10.648438 Z M 22.484375 18.476562 L 19.214844 18.476562 L 19.214844 15.632812 L 22.484375 15.632812 C 23.40625 15.632812 24.109375 16.257812 24.109375 17.0625 C 24.105469 17.863281 23.40625 18.476562 22.484375 18.476562 Z M 22.484375 18.476562 " fill-opacity="1" fill-rule="nonzero"/></svg>