<svg xmlns="http://www.w3.org/2000/svg" xmlns:xlink="http://www.w3.org/1999/xlink" width="56" zoomAndPan="magnify" viewBox="0 0 42 30.000001" height="40" preserveAspectRatio="xMidYMid meet" version="1.0"><defs><clipPath id="d6c22c17b2"><path d="M 6 3 L 27 3 L 27 24 L 6 24 Z M 6 3 " clip-rule="nonzero"/></clipPath><clipPath id="df2b476283"><path d="M 22.433594 2.179688 L 28.445312 8.195312 L 11.15625 25.484375 L 5.144531 19.46875 Z M 22.433594 2.179688 " clip-rule="nonzero"/></clipPath><clipPath id="2ae95acc98"><path d="M 25.4375 5.1875 C 27.097656 6.847656 27.097656 9.539062 25.4375 11.199219 L 14.179688 22.460938 C 12.519531 24.121094 9.824219 24.121094 8.164062 22.460938 C 6.503906 20.800781 6.503906 18.109375 8.164062 16.449219 L 19.425781 5.1875 C 21.085938 3.527344 23.777344 3.527344 25.4375 5.1875 Z M 25.4375 5.1875 " clip-rule="nonzero"/></clipPath><clipPath id="0cfeaf980f"><path d="M 0.484375 0.484375 L 21 0.484375 L 21 21 L 0.484375 21 Z M 0.484375 0.484375 " clip-rule="nonzero"/></clipPath><clipPath id="1c1ea135b6"><path d="M 16.433594 -0.820312 L 22.445312 5.195312 L 5.15625 22.484375 L -0.855469 16.46875 Z M 16.433594 -0.820312 " clip-rule="nonzero"/></clipPath><clipPath id="0f22168f32"><path d="M 19.4375 2.1875 C 21.097656 3.847656 21.097656 6.539062 19.4375 8.199219 L 8.179688 19.460938 C 6.519531 21.121094 3.824219 21.121094 2.164062 19.460938 C 0.503906 17.800781 0.503906 15.109375 2.164062 13.449219 L 13.425781 2.1875 C 15.085938 0.527344 17.777344 0.527344 19.4375 2.1875 Z M 19.4375 2.1875 " clip-rule="nonzero"/></clipPath><clipPath id="b34aa1e679"><rect x="0" width="21" y="0" height="21"/></clipPath><clipPath id="158d9a05e0"><path d="M 19 3 L 41 3 L 41 26 L 19 26 Z M 19 3 " clip-rule="nonzero"/></clipPath><clipPath id="ac7fa290e3"><path d="M 36.296875 2.179688 L 42.308594 8.195312 L 23.632812 26.867188 L 17.621094 20.855469 Z M 36.296875 2.179688 " clip-rule="nonzero"/></clipPath><clipPath id="e8da58ad6d"><path d="M 39.300781 5.1875 C 40.960938 6.847656 40.960938 9.539062 39.300781 11.199219 L 26.664062 23.839844 C 25 25.5 22.308594 25.5 20.648438 23.839844 C 18.988281 22.179688 18.988281 19.488281 20.648438 17.828125 L 33.289062 5.1875 C 34.949219 3.527344 37.640625 3.527344 39.300781 5.1875 Z M 39.300781 5.1875 " clip-rule="nonzero"/></clipPath><clipPath id="dbea4be999"><path d="M 0 0.484375 L 22 0.484375 L 22 22.546875 L 0 22.546875 Z M 0 0.484375 " clip-rule="nonzero"/></clipPath><clipPath id="feeb4b01a4"><path d="M 17.296875 -0.820312 L 23.308594 5.195312 L 4.632812 23.867188 L -1.378906 17.855469 Z M 17.296875 -0.820312 " clip-rule="nonzero"/></clipPath><clipPath id="2704e27646"><path d="M 20.300781 2.1875 C 21.960938 3.847656 21.960938 6.539062 20.300781 8.199219 L 7.664062 20.839844 C 6 22.5 3.308594 22.5 1.648438 20.839844 C -0.0117188 19.179688 -0.0117188 16.488281 1.648438 14.828125 L 14.289062 2.1875 C 15.949219 0.527344 18.640625 0.527344 20.300781 2.1875 Z M 20.300781 2.1875 " clip-rule="nonzero"/></clipPath><clipPath id="1ad1ecf79b"><rect x="0" width="22" y="0" height="23"/></clipPath><clipPath id="48df592508"><path d="M 18 16 L 25 16 L 25 24 L 18 24 Z M 18 16 " clip-rule="nonzero"/></clipPath><clipPath id="3914217559"><path d="M 17.644531 20.875 L 22.429688 16.089844 L 25.492188 19.152344 L 20.707031 23.9375 Z M 17.644531 20.875 " clip-rule="nonzero"/></clipPath><clipPath id="a7f8809e02"><path d="M 18.671875 19.847656 L 21.398438 17.121094 C 21.964844 16.554688 22.882812 16.554688 23.449219 17.121094 L 24.460938 18.132812 C 25.027344 18.699219 25.027344 19.617188 24.460938 20.183594 L 21.734375 22.910156 C 21.167969 23.476562 20.25 23.476562 19.683594 22.910156 L 18.671875 21.902344 C 18.105469 21.332031 18.105469 20.414062 18.671875 19.847656 Z M 18.671875 19.847656 " clip-rule="nonzero"/></clipPath><clipPath id="ebd077e9e6"><path d="M 0.0976562 0.492188 L 7 0.492188 L 7 7.691406 L 0.0976562 7.691406 Z M 0.0976562 0.492188 " clip-rule="nonzero"/></clipPath><clipPath id="a843c27b76"><path d="M -0.355469 4.875 L 4.429688 0.0898438 L 7.492188 3.152344 L 2.707031 7.9375 Z M -0.355469 4.875 " clip-rule="nonzero"/></clipPath><clipPath id="2a6d622914"><path d="M 0.671875 3.847656 L 3.398438 1.121094 C 3.964844 0.554688 4.882812 0.554688 5.449219 1.121094 L 6.460938 2.132812 C 7.027344 2.699219 7.027344 3.617188 6.460938 4.183594 L 3.734375 6.910156 C 3.167969 7.476562 2.25 7.476562 1.683594 6.910156 L 0.671875 5.902344 C 0.105469 5.332031 0.105469 4.414062 0.671875 3.847656 Z M 0.671875 3.847656 " clip-rule="nonzero"/></clipPath><clipPath id="12ffbff488"><rect x="0" width="7" y="0" height="8"/></clipPath><clipPath id="7ff1e8acef"><path d="M 2 10 L 16 10 L 16 24 L 2 24 Z M 2 10 " clip-rule="nonzero"/></clipPath><clipPath id="6be8f163b5"><path d="M 16.792969 19.453125 L 10.78125 25.464844 L 0.398438 15.082031 L 6.410156 9.070312 Z M 16.792969 19.453125 " clip-rule="nonzero"/></clipPath><clipPath id="3362e31969"><path d="M 13.789062 22.460938 C 12.125 24.121094 9.433594 24.121094 7.773438 22.460938 L 3.410156 18.09375 C 1.746094 16.433594 1.746094 13.742188 3.410156 12.082031 C 5.070312 10.417969 7.761719 10.417969 9.421875 12.082031 L 13.789062 16.445312 C 15.449219 18.105469 15.449219 20.796875 13.789062 22.460938 Z M 13.789062 22.460938 " clip-rule="nonzero"/></clipPath><clipPath id="6037c39aab"><path d="M 0 0.21875 L 13.542969 0.21875 L 13.542969 14 L 0 14 Z M 0 0.21875 " clip-rule="nonzero"/></clipPath><clipPath id="23e8d7cdf3"><path d="M 14.792969 9.453125 L 8.78125 15.464844 L -1.601562 5.082031 L 4.410156 -0.929688 Z M 14.792969 9.453125 " clip-rule="nonzero"/></clipPath><clipPath id="35a3b4321b"><path d="M 11.789062 12.460938 C 10.125 14.121094 7.433594 14.121094 5.773438 12.460938 L 1.410156 8.09375 C -0.253906 6.433594 -0.253906 3.742188 1.410156 2.082031 C 3.070312 0.417969 5.761719 0.417969 7.421875 2.082031 L 11.789062 6.445312 C 13.449219 8.105469 13.449219 10.796875 11.789062 12.460938 Z M 11.789062 12.460938 " clip-rule="nonzero"/></clipPath><clipPath id="3d55ffaba0"><rect x="0" width="14" y="0" height="14"/></clipPath></defs><g clip-path="url(#d6c22c17b2)"><g clip-path="url(#df2b476283)"><g clip-path="url(#2ae95acc98)"><g transform="matrix(1, 0, 0, 1, 6, 3)"><g clip-path="url(#b34aa1e679)"><g clip-path="url(#0cfeaf980f)"><g clip-path="url(#1c1ea135b6)"><g clip-path="url(#0f22168f32)"><path fill="#ffffff" d="M 16.433594 -0.820312 L 22.445312 5.195312 L 5.179688 22.460938 L -0.832031 16.445312 Z M 16.433594 -0.820312 " fill-opacity="1" fill-rule="nonzero"/></g></g></g></g></g></g></g></g><g clip-path="url(#158d9a05e0)"><g clip-path="url(#ac7fa290e3)"><g clip-path="url(#e8da58ad6d)"><g transform="matrix(1, 0, 0, 1, 19, 3)"><g clip-path="url(#1ad1ecf79b)"><g clip-path="url(#dbea4be999)"><g clip-path="url(#feeb4b01a4)"><g clip-path="url(#2704e27646)"><path fill="#ffffff" d="M 17.296875 -0.820312 L 23.308594 5.195312 L 4.65625 23.84375 L -1.355469 17.832031 Z M 17.296875 -0.820312 " fill-opacity="1" fill-rule="nonzero"/></g></g></g></g></g></g></g></g><g clip-path="url(#48df592508)"><g clip-path="url(#3914217559)"><g clip-path="url(#a7f8809e02)"><g transform="matrix(1, 0, 0, 1, 18, 16)"><g clip-path="url(#12ffbff488)"><g clip-path="url(#ebd077e9e6)"><g clip-path="url(#a843c27b76)"><g clip-path="url(#2a6d622914)"><path fill="#ffffff" d="M -0.355469 4.875 L 4.417969 0.101562 L 7.480469 3.164062 L 2.707031 7.9375 Z M -0.355469 4.875 " fill-opacity="1" fill-rule="nonzero"/></g></g></g></g></g></g></g></g><g clip-path="url(#7ff1e8acef)"><g clip-path="url(#6be8f163b5)"><g clip-path="url(#3362e31969)"><g transform="matrix(1, 0, 0, 1, 2, 10)"><g clip-path="url(#3d55ffaba0)"><g clip-path="url(#6037c39aab)"><g clip-path="url(#23e8d7cdf3)"><g clip-path="url(#35a3b4321b)"><path fill="#ffffff" d="M 14.792969 9.453125 L 8.78125 15.464844 L -1.601562 5.082031 L 4.410156 -0.929688 Z M 14.792969 9.453125 " fill-opacity="1" fill-rule="nonzero"/></g></g></g></g></g></g></g></g></svg>